<svg version="1.1" id="Layer_1" xmlns="http://www.w3.org/2000/svg" xmlns:xlink="http://www.w3.org/1999/xlink" x="0px" y="0px"
	 width="100%" viewBox="0 0 400 400" enable-background="new 0 0 400 400" xml:space="preserve">
<path fill="#000000" opacity="1.000000" stroke="none" 
	d="
M162.558258,206.156250 
	C162.591827,198.726440 162.585342,191.727844 162.633270,184.729614 
	C162.649048,182.426514 162.270615,179.735931 165.913544,179.869324 
	C169.396500,179.996857 169.126266,182.625351 169.144806,184.944855 
	C169.191437,190.776672 169.276474,196.611816 169.129593,202.440155 
	C169.047440,205.699768 170.379852,206.941025 173.568588,206.814667 
	C177.042664,206.677017 180.731277,206.212509 182.899689,211.594284 
	C188.315460,200.286194 193.084610,190.328201 197.853775,180.370209 
	C198.357330,180.281830 198.860886,180.193451 199.364426,180.105087 
	C204.274765,190.603012 209.185120,201.100922 214.217957,211.860764 
	C209.870514,214.033661 207.409103,213.113220 205.772430,209.268921 
	C203.642426,204.265854 201.342392,199.335190 198.691895,193.429443 
	C195.962540,199.401520 193.579391,204.317719 191.469360,209.348480 
	C190.264267,212.221680 188.455017,213.350769 185.333282,213.225967 
	C179.842926,213.006454 174.319290,212.831039 168.846390,213.193329 
	C163.702225,213.533844 161.735336,211.568024 162.558258,206.156250 
z"/>
<path fill="#000000" opacity="1.000000" stroke="none" 
	d="
M84.663628,203.941711 
	C84.670311,196.980301 84.737938,190.510574 84.656708,184.042725 
	C84.620926,181.193893 85.615784,179.608963 88.664047,179.764435 
	C92.619904,179.966217 96.624855,179.185669 100.531281,180.384277 
	C106.109436,182.095795 108.731155,186.524933 106.693825,191.857391 
	C105.755943,194.312164 106.281944,195.561188 107.778343,197.440720 
	C112.396500,203.241287 109.557640,210.612747 102.274414,212.416809 
	C99.332306,213.145554 96.354103,213.068192 93.371147,213.070724 
	C84.679710,213.078125 84.679710,213.077271 84.663628,203.941711 
M96.413315,206.738983 
	C99.233070,206.647430 102.509232,206.945206 102.739754,202.963043 
	C102.940842,199.489151 100.135368,199.280075 97.556519,199.163345 
	C96.897316,199.133499 96.235352,199.161240 95.574707,199.167633 
	C93.296631,199.189682 91.337898,199.372726 91.177551,202.489365 
	C91.006119,205.821594 92.461266,207.020645 96.413315,206.738983 
M99.077751,187.053299 
	C96.347786,186.396912 93.311234,184.571945 91.446297,188.269165 
	C90.828766,189.493439 90.851166,191.491104 92.294144,192.323334 
	C94.399895,193.537781 96.827759,193.337158 98.898132,192.120758 
	C100.750076,191.032669 101.104729,189.342422 99.077751,187.053299 
z"/>
<path fill="#000000" opacity="1.000000" stroke="none" 
	d="
M132.345062,186.023087 
	C129.751434,186.142090 127.586006,186.156418 125.421631,186.211746 
	C122.971893,186.274368 120.157677,185.699631 120.251724,189.702454 
	C120.335709,193.277176 122.842659,192.947281 125.176697,193.034988 
	C126.840004,193.097504 128.507782,193.123367 130.163910,193.272629 
	C131.942535,193.432938 132.815369,194.487732 132.776657,196.283417 
	C132.738327,198.062714 131.879974,199.107208 130.064346,199.185791 
	C128.234253,199.264969 126.397018,199.353745 124.569557,199.277924 
	C121.825050,199.164108 120.164520,199.849823 120.191559,203.125351 
	C120.220055,206.575180 122.249992,206.791687 124.802353,206.732361 
	C126.632751,206.689789 128.482407,206.625427 130.294388,206.829361 
	C133.441498,207.183548 134.094421,209.455093 134.326172,212.932648 
	C128.135925,212.932648 122.221001,213.000961 116.309128,212.896530 
	C114.166222,212.858673 113.687042,211.190460 113.687149,209.360199 
	C113.687630,200.696960 113.710648,192.033661 113.677734,183.370544 
	C113.668030,180.815704 114.940002,179.780823 117.374741,179.786804 
	C121.706108,179.797424 126.037918,179.721970 130.368866,179.759781 
	C131.813583,179.772385 133.585281,179.459457 134.249710,181.254242 
	C134.927368,183.084778 134.850830,184.877914 132.345062,186.023087 
z"/>
<path fill="#000000" opacity="1.000000" stroke="none" 
	d="
M307.690674,200.408203 
	C309.183777,204.612717 311.902374,207.963318 312.363525,212.331161 
	C308.657715,213.987640 306.178772,213.181870 304.592499,209.557587 
	C302.396423,204.540039 300.093475,199.569260 297.571381,193.992691 
	C294.110077,199.141418 292.373383,204.468842 290.045776,209.487640 
	C288.399414,213.037598 286.050018,214.111923 281.722443,211.810165 
	C286.682495,201.190643 291.604095,190.653519 297.199005,178.674774 
	C301.100403,186.757248 304.313049,193.412827 307.690674,200.408203 
z"/>
<path fill="#000000" opacity="1.000000" stroke="none" 
	d="
M218.754791,191.156921 
	C217.391983,187.425400 214.850662,184.527710 214.680420,180.568604 
	C218.619644,178.723618 220.867767,180.058990 222.609161,183.732773 
	C224.850006,188.460312 226.325500,193.604919 229.792694,198.249344 
	C232.983719,193.605698 234.634796,188.709076 236.624023,184.031082 
	C238.230865,180.252335 240.360275,178.745590 245.317703,180.815704 
	C240.392334,191.436890 235.508926,201.967575 230.052322,213.734314 
	C225.149155,205.891739 222.477280,198.456253 218.754791,191.156921 
z"/>
<path fill="#000000" opacity="1.000000" stroke="none" 
	d="
M261.187378,186.055054 
	C258.454651,185.858246 257.551331,184.572388 257.755829,182.361969 
	C257.962189,180.130554 259.561981,179.799622 261.319092,179.792801 
	C268.126404,179.766464 274.933899,179.768021 281.741272,179.783676 
	C283.806793,179.788422 285.271454,180.465576 285.283905,182.917999 
	C285.296570,185.409546 283.716919,186.256454 281.735626,185.994720 
	C275.867767,185.219467 274.707306,188.194733 275.055634,193.272125 
	C275.395721,198.228928 275.104858,203.229462 275.078979,208.210724 
	C275.066071,210.696869 274.782410,213.004181 271.449829,212.946045 
	C268.028290,212.886353 268.069519,210.380264 268.054016,208.008469 
	C268.020386,202.861267 267.782104,197.695129 268.133881,192.571503 
	C268.476990,187.574356 266.654999,185.389511 261.187378,186.055054 
z"/>
<path fill="#000000" opacity="1.000000" stroke="none" 
	d="
M142.010941,179.863693 
	C145.284286,180.104691 145.300842,182.177063 145.305130,184.237534 
	C145.317230,190.059555 145.523788,195.891388 145.249588,201.700272 
	C145.062088,205.672623 146.519821,207.173813 150.415604,206.842529 
	C154.259171,206.515686 157.848557,206.918427 158.970123,212.598221 
	C152.836548,213.440399 146.823380,213.284225 140.814514,212.717606 
	C139.270508,212.572006 138.772537,211.170319 138.771332,209.716827 
	C138.764008,200.901245 138.761658,192.085663 138.773331,183.270096 
	C138.775803,181.403244 139.428268,180.015213 142.010941,179.863693 
z"/>
<path fill="#000000" opacity="1.000000" stroke="none" 
	d="
M253.510818,212.190887 
	C249.062210,213.929703 247.750687,211.994232 247.778839,208.153793 
	C247.837082,200.207626 247.794586,192.260712 247.790039,184.314102 
	C247.788727,182.030975 247.939133,179.921524 251.045334,179.844742 
	C254.202423,179.766708 254.421448,181.854477 254.355911,184.159927 
	C254.093124,193.403488 255.068787,202.670074 253.510818,212.190887 
z"/>
<path fill="#000000" opacity="1.000000" stroke="none" 
	d="
M307.174438,188.659561 
	C307.874908,182.283524 311.515808,178.936935 316.291931,179.824814 
	C320.463470,180.600296 323.112427,184.681915 322.213715,189.204498 
	C321.541840,192.585510 319.599335,194.885574 315.979309,195.270874 
	C311.267822,195.772339 308.516785,193.423080 307.174438,188.659561 
z"/>
</svg>